<svg id="Calque_1" data-name="Calque 1" xmlns="http://www.w3.org/2000/svg" xmlns:xlink="http://www.w3.org/1999/xlink" viewBox="0 0 966.74 966.74"><defs><style>.cls-1{fill:none;}.cls-2{fill:#3f3f3f;}.cls-3{fill:#fff;}.cls-4{clip-path:url(#clip-path);}</style><clipPath id="clip-path" transform="translate(-16.63 -16.63)"><rect class="cls-1" width="1000" height="1000"/></clipPath></defs><title>ABbackgroundgrey</title><circle class="cls-2" cx="483.37" cy="483.37" r="483.37"/><polyline class="cls-3" points="305.82 634.11 449.76 634.05 396.6 602.08 324.1 603"/><g class="cls-4"><path class="cls-3" d="M466.39,650.68c-37.25-72.55-102-199.7-107.45-211.58-13.84-29.94-53.72-34-82.61,27.27S99.44,838.5,99.44,838.5l706.22,1.65s242.67-183.74-11.59-400.73C794.07,439.42,929,223,673,126c0,0-114.35-41.5-215.67,62.11l4.57,227.55L503,547.53l-3.28-329.65s74.14-89.09,162.78-44.77c48.84,24.42,158.72,97.68,74.52,269.69,0,0,185.94,190.19,31.29,348.91L172.4,800.18,308.47,510.9s20.84-47.38,46.85-5.65C367.65,525,396.14,583,413.22,618.71Z" transform="translate(-16.63 -16.63)"/></g></svg>