<svg id="Calque_1" data-name="Calque 1" xmlns="http://www.w3.org/2000/svg" xmlns:xlink="http://www.w3.org/1999/xlink" viewBox="0 0 810.71 722.36"><defs><style>.cls-1{fill:none;}.cls-2{clip-path:url(#clip-path);}</style><clipPath id="clip-path" transform="translate(-99.44 -147.79)"><rect class="cls-1" width="1000" height="1000"/></clipPath></defs><title>ABv2</title><g class="cls-2"><path d="M466.39,680.68c-37.25-72.55-102-199.7-107.45-211.58-13.84-29.94-53.72-34-82.61,27.27S99.44,868.5,99.44,868.5l706.22,1.65s242.67-183.74-11.59-400.73C794.07,469.42,929,253,673,156c0,0-114.35-41.5-215.67,62.11l4.57,227.55L503,577.53l-3.28-329.65s74.14-89.09,162.78-44.77c48.84,24.42,158.72,97.68,74.52,269.69,0,0,185.94,190.19,31.29,348.91L172.4,830.18,308.47,540.9s20.84-47.38,46.85-5.65C367.65,555,396.14,613,413.22,648.71Z" transform="translate(-99.44 -147.79)"/></g><polyline points="223.01 532.95 366.94 532.89 313.78 500.92 241.29 501.84"/></svg>